<svg width="29" height="29" viewBox="0 0 29 29" fill="none" xmlns="http://www.w3.org/2000/svg">
<g clip-path="url(#clip0_83_45)">
<path d="M28.5573 11.7492L28.565 11.7456C28.6823 11.7422 28.7936 11.6934 28.8757 11.6096C28.9577 11.5258 29.0041 11.4134 29.005 11.2961C29.0056 11.2368 28.9945 11.178 28.9723 11.123C28.9501 11.0681 28.9172 11.0181 28.8755 10.9759C28.8338 10.9338 28.7842 10.9003 28.7295 10.8775C28.6748 10.8547 28.6161 10.8429 28.5568 10.8429C28.4291 10.8022 28.0938 10.2507 28.0938 9.257C28.0938 8.26329 28.4295 7.71184 28.5573 7.67106L28.5636 7.66789C28.6748 7.65997 28.7792 7.61135 28.8568 7.53134C28.9343 7.45132 28.9797 7.34551 28.9842 7.23415C28.9887 7.12278 28.952 7.01367 28.8811 6.92767C28.8102 6.84167 28.7101 6.78482 28.5999 6.76798L13.9961 5.05064C13.4276 4.98312 12.8532 4.98312 12.2847 5.05064L1.75858 6.31486H1.75178C0.899453 6.37376 0.453125 7.59448 0.453125 8.80387C0.423478 9.52296 0.61311 10.2341 0.996875 10.8429C0.612977 11.4517 0.423334 12.1629 0.453125 12.882C0.428787 13.5742 0.601647 14.259 0.951562 14.8567C0.325797 15.4866 0 16.7934 0 18.0929C0 19.8792 0.612172 21.6876 1.78259 21.7179L17.1657 23.5277C17.1833 23.5297 17.201 23.5307 17.2188 23.5304C17.2368 23.5305 17.2548 23.5295 17.2727 23.5273L20.8438 23.0986V24.8898C20.8437 24.9889 20.8762 25.0853 20.9362 25.1642C20.9962 25.2431 21.0804 25.3002 21.1759 25.3266C21.2153 25.3374 21.256 25.3429 21.2969 25.3429C21.3751 25.3429 21.4519 25.3227 21.52 25.2842C21.588 25.2457 21.6449 25.1902 21.6852 25.1232L22.6979 23.4353L23.6531 24.7086C23.7102 24.7846 23.7897 24.8408 23.8805 24.8692C23.9713 24.8976 24.0687 24.8966 24.1589 24.8666C24.2491 24.8365 24.3276 24.7788 24.3832 24.7016C24.4388 24.6245 24.4688 24.5318 24.4688 24.4367V22.6641L28.6008 22.1679C28.7156 22.1542 28.8208 22.0973 28.8949 22.0086C28.969 21.9199 29.0065 21.8063 28.9996 21.6909C28.9927 21.5756 28.942 21.4672 28.8578 21.388C28.7737 21.3088 28.6624 21.2647 28.5469 21.2648C28.2297 21.2648 27.6406 20.2326 27.6406 18.5461C27.6406 16.874 28.1971 15.9062 28.5469 15.8273C28.6676 15.8277 28.7836 15.7802 28.8694 15.6953C28.9553 15.6104 29.004 15.4949 29.005 15.3742C29.0059 15.2634 28.9659 15.1562 28.8925 15.0732C28.8191 14.9902 28.7176 14.9373 28.6076 14.9247C28.5897 14.9226 28.5717 14.9213 28.5537 14.9211C28.4236 14.8712 28.0938 14.3211 28.0938 13.3351C28.0938 12.3382 28.4295 11.79 28.5573 11.7492ZM14.63 22.3165C14.2023 21.4585 14.0015 20.5051 14.0469 19.5475C14.0137 18.628 14.1925 17.7133 14.5693 16.874L16.0615 17.0494C15.5991 17.9285 15.3733 18.9127 15.4062 19.9054C15.3909 20.7846 15.5607 21.6572 15.9047 22.4665L14.63 22.3165ZM12.8012 22.1013C12.3876 21.2477 12.1928 20.3047 12.2344 19.3572C12.198 18.4299 12.3822 17.5073 12.7718 16.6651L13.6191 16.7648C13.2819 17.6529 13.1194 18.5978 13.1406 19.5475C13.1265 20.4474 13.2717 21.3427 13.5697 22.1919L12.8012 22.1013ZM5.47692 21.2403C5.13183 20.4242 4.96691 19.5432 4.99344 18.6575C4.94046 17.6742 5.15865 16.6951 5.62419 15.8273L11.7699 16.5491C11.7835 16.5491 11.7957 16.5573 11.8093 16.5573C11.8128 16.5575 11.8163 16.5575 11.8198 16.5573C11.4761 17.4499 11.3091 18.4008 11.3281 19.3572C11.315 20.2483 11.457 21.135 11.7477 21.9776L5.47692 21.2403ZM3.66759 21.0278C3.31905 20.2099 3.15298 19.3259 3.18094 18.4373C3.12728 17.456 3.34354 16.4787 3.80625 15.6116L4.64997 15.7109C4.25232 16.6406 4.05974 17.6452 4.08537 18.6562C4.07478 19.4916 4.19714 20.3233 4.44788 21.1203L3.66759 21.0278ZM1.82247 14.4679C1.69469 14.4272 1.35938 13.8757 1.35938 12.882C1.35938 11.8969 1.68834 11.3477 1.80888 11.2988L3.95533 11.5489C3.96303 11.5489 3.96892 11.5548 3.97617 11.5557L13.0903 12.6251C12.8875 13.2179 12.7896 13.8415 12.8008 14.4679C12.7996 14.9069 12.8466 15.3447 12.9408 15.7734L12.074 15.6719C11.8612 15.1462 11.7615 14.5816 11.7812 14.0148C11.7808 13.7441 11.8112 13.4743 11.8719 13.2105C11.8853 13.1525 11.8871 13.0925 11.8773 13.0338C11.8675 12.9751 11.8462 12.9189 11.8146 12.8684C11.7831 12.8179 11.7419 12.7742 11.6935 12.7396C11.645 12.7051 11.5902 12.6804 11.5323 12.667C11.4743 12.6536 11.4142 12.6518 11.3555 12.6616C11.2968 12.6714 11.2406 12.6927 11.1902 12.7242C11.1397 12.7558 11.0959 12.7969 11.0614 12.8454C11.0268 12.8938 11.0021 12.9486 10.9887 13.0066C10.9129 13.3373 10.8748 13.6755 10.875 14.0148C10.8701 14.5349 10.9364 15.0533 11.0721 15.5554L5.4588 14.8957H5.44928L3.64313 14.6827C3.63905 14.6827 3.63542 14.6827 3.63134 14.6827L1.82247 14.4679ZM4.36812 7.52062L6.12761 7.72679H6.13214L16.2006 8.91353C15.9652 9.44983 15.8488 10.0308 15.8594 10.6164C15.8557 11.1097 15.9361 11.6001 16.0973 12.0664L6.29028 10.915C6.16972 10.4476 6.11152 9.96624 6.11719 9.48356C6.11655 9.19999 6.13395 8.91667 6.1693 8.63531C6.17691 8.57628 6.17283 8.51633 6.15728 8.45888C6.14172 8.40143 6.11501 8.3476 6.07865 8.30048C6.0423 8.25335 5.99702 8.21385 5.9454 8.18422C5.89378 8.15459 5.83683 8.13543 5.7778 8.12781C5.71877 8.12019 5.65882 8.12428 5.60137 8.13983C5.54391 8.15538 5.49009 8.1821 5.44296 8.21845C5.39584 8.25481 5.35634 8.30009 5.32671 8.35171C5.29708 8.40333 5.27791 8.46028 5.2703 8.51931C5.23005 8.83914 5.21023 9.16121 5.21094 9.48356C5.20959 9.92635 5.25101 10.3682 5.33464 10.8031L4.32327 10.6843C4.14375 10.152 4.06073 9.59193 4.07812 9.03043C4.07763 8.51328 4.17607 8.00079 4.36812 7.52062ZM17.2188 9.03043C17.2366 9.03049 17.2545 9.02943 17.2722 9.02726L27.4222 7.81062C27.2625 8.27594 27.1831 8.76505 27.1875 9.257C27.1767 9.84382 27.2937 10.426 27.5305 10.963L17.2237 12.1982C17.0923 12.1461 16.7656 11.601 16.7656 10.6164C16.7656 9.62267 17.1009 9.07122 17.2188 9.03043ZM13.9109 15.8871C13.7701 15.4274 13.7013 14.9487 13.707 14.4679C13.6751 13.8724 13.7889 13.2781 14.0387 12.7365L16.2019 12.9903C15.9656 13.5268 15.8487 14.1083 15.8594 14.6945C15.8557 15.1878 15.9361 15.6782 16.0973 16.1445L13.9109 15.8871ZM17.2251 16.2768C17.0928 16.2247 16.7656 15.6796 16.7656 14.6945C16.7656 13.7008 17.1009 13.1493 17.2188 13.1086C17.2368 13.1086 17.2548 13.1076 17.2727 13.1054L27.4227 11.8887C27.2628 12.354 27.1833 12.8431 27.1875 13.3351C27.1786 13.9224 27.2993 14.5044 27.5409 15.0398L17.2251 16.2768ZM12.3921 5.94918C12.8895 5.89028 13.3922 5.89028 13.8896 5.94918L24.7103 7.22156L17.2188 8.12101L6.23817 6.82689H6.23364L5.65863 6.75937L12.3921 5.94918ZM1.80661 7.21793L3.44148 7.40961C3.2633 7.93143 3.17222 8.47903 3.17188 9.03043C3.16763 9.54718 3.22436 10.0626 3.34089 10.5661L1.82247 10.3898C1.69469 10.349 1.35938 9.79757 1.35938 8.80387C1.35938 7.82603 1.68381 7.27684 1.80661 7.2202V7.21793ZM1.8125 20.8117C1.49531 20.8117 0.90625 19.7795 0.90625 18.0929C0.90625 16.4164 1.48534 15.3896 1.8057 15.3764L2.83611 15.4974C2.44081 16.4259 2.24936 17.4285 2.27469 18.4373C2.26447 19.2745 2.38823 20.1079 2.64127 20.9059L1.86552 20.8153C1.84794 20.813 1.83023 20.8117 1.8125 20.8117ZM23.0187 22.3523C22.9746 22.2923 22.9162 22.2442 22.8488 22.2126C22.7813 22.1809 22.7071 22.1667 22.6327 22.1711C22.559 22.1753 22.4874 22.1975 22.4242 22.2357C22.361 22.274 22.3082 22.327 22.2702 22.3904L21.75 23.254V19.3671L23.5625 19.1487V23.0773L23.0187 22.3523ZM24.4688 21.751V19.0395L24.7533 19.0051C24.8727 18.9908 24.9816 18.9297 25.0559 18.8353C25.1303 18.7408 25.164 18.6206 25.1498 18.5012C25.1356 18.3818 25.0745 18.273 24.98 18.1986C24.8855 18.1242 24.7653 18.0905 24.6459 18.1047L23.9662 18.1872H23.9631L21.2443 18.5134C21.2393 18.5134 21.2353 18.5171 21.2303 18.5175L20.6657 18.5859C20.5511 18.5996 20.446 18.6564 20.3718 18.7449C20.2977 18.8333 20.2602 18.9468 20.2668 19.062C20.2735 19.1772 20.3238 19.2856 20.4076 19.3649C20.4914 19.4443 20.6024 19.4887 20.7178 19.489C20.7357 19.4891 20.7535 19.488 20.7712 19.4858L20.8438 19.4768V22.186L17.2188 22.621L17.1789 22.6165C16.8662 22.5408 16.3125 21.5743 16.3125 19.9054C16.3125 18.2189 16.9016 17.1867 17.2188 17.1867C17.2368 17.1868 17.2548 17.1857 17.2727 17.1835L27.2328 15.9895C26.8893 16.7973 26.7195 17.6684 26.7344 18.5461C26.7016 19.538 26.9262 20.5215 27.3864 21.4007L24.4688 21.751Z" fill="black"/>
</g>
<defs>
<clipPath id="clip0_83_45">
<rect width="29" height="29" fill="white"/>
</clipPath>
</defs>
</svg>
