<svg width="20" height="20" viewBox="0 0 20 20" fill="none" xmlns="http://www.w3.org/2000/svg">
<path fill-rule="evenodd" clip-rule="evenodd" d="M2.5 8C2.63261 8 2.75979 8.05268 2.85355 8.14645C2.94732 8.24021 3 8.36739 3 8.5V17H17V8.5C17 8.36739 17.0527 8.24021 17.1464 8.14645C17.2402 8.05268 17.3674 8 17.5 8C17.6326 8 17.7598 8.05268 17.8536 8.14645C17.9473 8.24021 18 8.36739 18 8.5V17.5C18 17.6326 17.9473 17.7598 17.8536 17.8536C17.7598 17.9473 17.6326 18 17.5 18H2.5C2.36739 18 2.24021 17.9473 2.14645 17.8536C2.05268 17.7598 2 17.6326 2 17.5V8.5C2 8.36739 2.05268 8.24021 2.14645 8.14645C2.24021 8.05268 2.36739 8 2.5 8Z" fill="black"/>
<path fill-rule="evenodd" clip-rule="evenodd" d="M3 5.5C3 5.36739 3.05268 5.24021 3.14645 5.14645C3.24021 5.05268 3.36739 5 3.5 5H16.5C16.6326 5 16.7598 5.05268 16.8536 5.14645C16.9473 5.24021 17 5.36739 17 5.5V10.17C17 10.2523 16.9796 10.3334 16.9407 10.406C16.9018 10.4785 16.8456 10.5404 16.777 10.586L10.277 14.916C10.1949 14.9706 10.0986 14.9997 10 14.9997C9.90143 14.9997 9.80506 14.9706 9.723 14.916L3.223 10.586C3.15445 10.5404 3.09823 10.4785 3.05932 10.406C3.02042 10.3334 3.00004 10.2523 3 10.17V5.5ZM4 6V9.902L10 13.899L16 9.902V6H4Z" fill="black"/>
<path fill-rule="evenodd" clip-rule="evenodd" d="M9.723 2.08374C9.80506 2.02913 9.90143 2 10 2C10.0986 2 10.1949 2.02913 10.277 2.08374L14.777 5.08374L14.223 5.91574L10 3.10074L5.777 5.91574L5.223 5.08374L9.723 2.08374ZM16.854 7.14574L17.854 8.14574L17.146 8.85374L16.146 7.85374L16.854 7.14574ZM3.854 7.85374L2.854 8.85374L2.146 8.14574L3.146 7.14574L3.854 7.85374ZM6.75 7.99974C6.75 7.93344 6.77634 7.86985 6.82322 7.82296C6.8701 7.77608 6.93369 7.74974 7 7.74974H13C13.0663 7.74974 13.1299 7.77608 13.1768 7.82296C13.2237 7.86985 13.25 7.93344 13.25 7.99974C13.25 8.06605 13.2237 8.12963 13.1768 8.17652C13.1299 8.2234 13.0663 8.24974 13 8.24974H7C6.93369 8.24974 6.8701 8.2234 6.82322 8.17652C6.77634 8.12963 6.75 8.06605 6.75 7.99974ZM7.25 9.99974C7.25 9.93344 7.27634 9.86985 7.32322 9.82296C7.3701 9.77608 7.43369 9.74974 7.5 9.74974H12.5C12.5663 9.74974 12.6299 9.77608 12.6768 9.82296C12.7237 9.86985 12.75 9.93344 12.75 9.99974C12.75 10.066 12.7237 10.1296 12.6768 10.1765C12.6299 10.2234 12.5663 10.2497 12.5 10.2497H7.5C7.43369 10.2497 7.3701 10.2234 7.32322 10.1765C7.27634 10.1296 7.25 10.066 7.25 9.99974Z" fill="black"/>
</svg>
