<svg width="29" height="29" viewBox="0 0 29 29" fill="none" xmlns="http://www.w3.org/2000/svg">
<path d="M18.3366 6.31115C18.7155 6.20403 19.2342 6.05724 19.4165 5.53733C20.0239 3.86472 20.6997 2.49105 21.4248 1.454C21.6569 1.12213 21.6503 0.697633 21.4083 0.372713C21.1671 0.0487837 20.7636 -0.0783679 20.3806 0.0483869C17.1673 1.11182 14.6268 2.99886 12.8298 5.65674C11.3334 7.87009 10.677 10.1509 10.3898 11.6747C10.1866 12.7514 10.3479 13.8841 10.8438 14.864L11.9775 17.1043C11.8761 17.7784 11.816 18.3695 11.7991 18.8293H9.94265C9.22655 18.8293 8.64395 19.4119 8.64395 20.1278C8.64395 20.7943 9.14859 21.3452 9.79586 21.4182C9.56813 21.5497 9.21802 21.6792 8.68025 21.7637C7.69657 21.9185 6.97908 22.7425 6.96063 23.7305C6.96063 23.7341 6.96044 23.7377 6.96044 23.741V23.749C6.96044 23.7559 6.96024 23.7628 6.96024 23.7696V24.9844H5.50781C5.22733 24.9844 5 25.2117 5 25.4922C5 25.7727 5.22733 26 5.50781 26H20.0828C20.3633 26 20.5906 25.7727 20.5906 25.4922C20.5906 25.2117 20.3633 24.9844 20.0828 24.9844H18.2041V23.7696C18.2041 23.7628 18.2041 23.7559 18.2039 23.749C18.2039 23.7464 18.2039 23.7438 18.2039 23.7412C18.2039 23.7377 18.2037 23.7339 18.2037 23.7301C18.1851 22.7421 17.4676 21.9185 16.4841 21.7637C15.9463 21.6792 15.5962 21.5497 15.3685 21.4182C16.0158 21.3452 16.5204 20.7943 16.5204 20.1278C16.5204 19.4119 15.9378 18.8293 15.2217 18.8293H12.8132C12.8275 18.4526 12.8753 17.9714 12.9546 17.4203L15.5524 15.5857C16.1663 15.152 16.6331 14.5199 16.8662 13.8054C17.2778 12.5445 17.9224 10.4978 18.6574 7.9058C18.8419 7.31547 18.4406 6.91675 18.2004 6.67812C18.1285 6.60671 18.0105 6.48948 17.9877 6.43493C17.9881 6.43334 17.9887 6.43155 17.9895 6.42937C18.0587 6.3897 18.2301 6.3413 18.3366 6.31115ZM7.97586 24.9844V24.0727H17.1885V24.9844H7.97586ZM16.8965 23.0571H8.26785C8.41663 22.9071 8.6136 22.8024 8.83815 22.7671C9.82303 22.6121 10.5217 22.2819 10.9144 21.7856C11.0128 21.661 11.0817 21.539 11.1295 21.4263H14.0349C14.0827 21.5388 14.1515 21.661 14.2499 21.7856C14.6427 22.2819 15.3411 22.6121 16.3262 22.7671C16.5508 22.8024 16.7477 22.9071 16.8965 23.0571ZM15.5048 20.1278C15.5048 20.2839 15.3778 20.4109 15.2219 20.4109H9.94245C9.78653 20.4109 9.65958 20.2839 9.65958 20.1278C9.65958 19.9719 9.78653 19.845 9.94245 19.845H12.3073H12.3095H12.3123H15.2219C15.3778 19.845 15.5048 19.9719 15.5048 20.1278ZM17.4845 7.39858C17.5527 7.46622 17.6527 7.5654 17.6832 7.61896C17.683 7.61976 17.6826 7.62055 17.6824 7.62134C16.9511 10.2013 16.3099 12.2369 15.9007 13.4902C15.7351 13.9982 15.4032 14.4477 14.9666 14.7561L13.1994 16.0042C13.5057 14.4661 13.9837 12.68 14.6042 11.1231C14.7082 10.8626 14.5812 10.5673 14.3205 10.4633C14.0601 10.3594 13.7647 10.4865 13.6608 10.747C13.0613 12.2512 12.5944 13.9383 12.2776 15.448L11.7499 14.4054C11.3546 13.624 11.2261 12.7211 11.3877 11.8628C11.6571 10.4334 12.2722 8.29499 13.6711 6.22565C15.2902 3.831 17.565 2.1084 20.4353 1.1025C19.7202 2.17922 19.0577 3.5511 18.4636 5.18583C18.4029 5.237 18.1896 5.29731 18.0603 5.33381C17.6935 5.43755 17.1931 5.57918 17.0364 6.07866C16.8009 6.71938 17.2448 7.16034 17.4845 7.39858Z" fill="black"/>
<path d="M14.7318 8.93359C14.4189 8.93359 14.1654 9.18715 14.1654 9.5C14.1654 9.81285 14.4189 10.0664 14.7318 10.0664H14.7331C15.0459 10.0664 15.2988 9.81285 15.2988 9.5C15.2988 9.18715 15.0446 8.93359 14.7318 8.93359Z" fill="black"/>
</svg>
