<svg width="29" height="29" viewBox="0 0 29 29" fill="none" xmlns="http://www.w3.org/2000/svg">
<g clip-path="url(#clip0_83_52)">
<path d="M20.1431 6.98273C20.5657 6.86325 21.1442 6.69952 21.3476 6.11962C22.0251 4.25401 22.7789 2.72184 23.5875 1.56513C23.8464 1.19497 23.8391 0.72149 23.5692 0.359078C23.3001 -0.00222793 22.8501 -0.144051 22.4229 -0.0026705C18.8388 1.18347 16.0052 3.28825 14.0009 6.25281C12.3317 8.72155 11.5996 11.2655 11.2792 12.9652C11.0527 14.1661 11.2326 15.4295 11.7857 16.5225L13.0502 19.0213C12.9371 19.7731 12.8701 20.4325 12.8512 20.9453H10.7805C9.98181 20.9453 9.332 21.5952 9.332 22.3937C9.332 23.1371 9.89486 23.7515 10.6168 23.8329C10.3628 23.9796 9.9723 24.1241 9.37248 24.2183C8.27529 24.3909 7.47502 25.31 7.45444 26.4121C7.45444 26.416 7.45422 26.42 7.45422 26.4238V26.4326C7.45422 26.4404 7.454 26.4481 7.454 26.4556V27.8106H5.83399C5.52113 27.8106 5.26758 28.0641 5.26758 28.377C5.26758 28.6899 5.52113 28.9434 5.83399 28.9434H22.0908C22.4036 28.9434 22.6572 28.6899 22.6572 28.377C22.6572 28.0641 22.4036 27.8106 22.0908 27.8106H19.9953V26.4556C19.9953 26.4481 19.9953 26.4404 19.9951 26.4326C19.9951 26.4298 19.9951 26.4269 19.9951 26.424C19.9951 26.42 19.9948 26.4158 19.9948 26.4116C19.974 25.3096 19.1738 24.3909 18.0768 24.2183C17.477 24.1241 17.0865 23.9796 16.8325 23.8329C17.5544 23.7515 18.1173 23.1371 18.1173 22.3937C18.1173 21.5952 17.4675 20.9453 16.6687 20.9453H13.9823C13.9982 20.5252 14.0515 19.9884 14.14 19.3738L17.0376 17.3274C17.7223 16.8438 18.243 16.1386 18.5029 15.3417C18.962 13.9354 19.6811 11.6525 20.5008 8.76138C20.7066 8.10293 20.259 7.65821 19.9911 7.39205C19.911 7.31239 19.7793 7.18163 19.7539 7.12079C19.7543 7.11902 19.755 7.11703 19.7559 7.11459C19.8331 7.07034 20.0243 7.01636 20.1431 6.98273ZM8.58681 27.8106V26.7937H18.8625V27.8106H8.58681ZM18.5368 25.6609H8.9125C9.07844 25.4936 9.29814 25.3768 9.5486 25.3374C10.6471 25.1646 11.4264 24.7962 11.8645 24.2427C11.9742 24.1037 12.051 23.9677 12.1043 23.842H15.345C15.3983 23.9674 15.4751 24.1037 15.5848 24.2427C16.0229 24.7962 16.8019 25.1646 17.9007 25.3374C18.1511 25.3768 18.3708 25.4936 18.5368 25.6609ZM16.9845 22.3937C16.9845 22.5678 16.8429 22.7094 16.669 22.7094H10.7803C10.6064 22.7094 10.4648 22.5678 10.4648 22.3937C10.4648 22.2198 10.6064 22.0782 10.7803 22.0782H13.4181H13.4205H13.4236H16.669C16.8429 22.0782 16.9845 22.2198 16.9845 22.3937ZM19.1926 8.19564C19.2687 8.27108 19.3802 8.38171 19.4143 8.44145C19.414 8.44233 19.4136 8.44322 19.4134 8.4441C18.5976 11.3217 17.8825 13.5922 17.4261 14.9901C17.2413 15.5567 16.8712 16.0581 16.3842 16.4021L14.4131 17.7943C14.7547 16.0787 15.2879 14.0865 15.98 12.3499C16.0959 12.0594 15.9543 11.7299 15.6636 11.614C15.3731 11.4981 15.0436 11.6399 14.9277 11.9304C14.2591 13.6081 13.7382 15.4899 13.3849 17.1739L12.7964 16.011C12.3554 15.1394 12.212 14.1323 12.3924 13.1749C12.6928 11.5806 13.3789 9.19548 14.9392 6.88737C16.7451 4.2164 19.2824 2.29504 22.4839 1.17307C21.6863 2.37403 20.9473 3.90421 20.2847 5.72756C20.217 5.78464 19.9791 5.8519 19.8349 5.89261C19.4258 6.00833 18.8676 6.1663 18.6928 6.72342C18.4301 7.43807 18.9253 7.92991 19.1926 8.19564Z" fill="black"/>
<path d="M16.2983 9.22559C15.9855 9.22559 15.7319 9.47914 15.7319 9.79199C15.7319 10.1048 15.9855 10.3584 16.2983 10.3584H16.2997C16.6125 10.3584 16.8654 10.1048 16.8654 9.79199C16.8654 9.47914 16.6112 9.22559 16.2983 9.22559Z" fill="black"/>
</g>
<defs>
<clipPath id="clip0_83_52">
<rect width="29" height="29" fill="white"/>
</clipPath>
</defs>
</svg>
