<svg width="24" height="24" viewBox="0 0 24 24" fill="none" xmlns="http://www.w3.org/2000/svg">
<path d="M12 16.423C12.1747 16.423 12.3207 16.364 12.438 16.246C12.556 16.128 12.615 15.982 12.615 15.808C12.615 15.6333 12.556 15.487 12.438 15.369C12.3207 15.251 12.1747 15.192 12 15.192C11.8253 15.192 11.6793 15.251 11.562 15.369C11.444 15.487 11.385 15.6333 11.385 15.808C11.385 15.982 11.444 16.128 11.562 16.246C11.6793 16.364 11.8253 16.423 12 16.423ZM11.5 13.462H12.5V7.385H11.5V13.462ZM8.673 20L4 15.336V8.673L8.664 4H15.327L20 8.664V15.327L15.336 20H8.673ZM9.1 19H14.9L19 14.9V9.1L14.9 5H9.1L5 9.1V14.9L9.1 19Z" fill="white"/>
</svg>
