<svg width="24" height="24" viewBox="0 0 24 24" fill="none" xmlns="http://www.w3.org/2000/svg">
<path d="M11.0186 3.61361L8.82018 8.26725L3.91307 9.01341C3.65136 9.03959 3.43218 9.17049 3.25552 9.40612C3.07886 9.64175 2.99381 9.9101 3.00035 10.2112C3.00689 10.5123 3.11485 10.7675 3.32422 10.977L6.85734 14.5703L6.03295 19.7345C5.9806 20.0224 6.03295 20.281 6.18997 20.5101C6.347 20.7391 6.55964 20.8897 6.8279 20.9617C7.09615 21.0337 7.34805 21.0042 7.58359 20.8733L12 18.576L16.4164 20.8733C16.6781 21.0042 16.9431 21.0337 17.2113 20.9617C17.4796 20.8897 17.6857 20.7391 17.8296 20.5101C17.9736 20.281 18.0194 20.0224 17.967 19.7345L17.1623 14.5703L20.6758 10.977C20.8851 10.7675 20.9931 10.5188 20.9996 10.2308C21.0062 9.94283 20.9244 9.68102 20.7543 9.44539C20.5842 9.20976 20.3683 9.06577 20.1065 9.01341L15.1994 8.26725L12.9814 3.61361C12.8506 3.3518 12.6543 3.17181 12.3926 3.07363C12.1308 2.97546 11.8691 2.97546 11.6074 3.07363C11.3457 3.17181 11.1494 3.3518 11.0186 3.61361Z" fill="#CCD6DF"/>
</svg>
