<svg width="29" height="29" viewBox="0 0 29 29" fill="none" xmlns="http://www.w3.org/2000/svg">
<g clip-path="url(#clip0_83_68)">
<path d="M19.6954 25.9175C14.2398 26.0902 8.71112 25.9883 3.26267 25.6147C2.24492 25.5451 1.42006 24.7618 1.30139 23.7518C0.699156 18.6315 0.699156 13.439 1.30139 8.31863C1.42006 7.3087 2.24492 6.52531 3.26273 6.45586C3.75257 6.42238 4.20723 6.39321 4.65265 6.36658C4.88689 6.35259 5.06545 6.15137 5.05146 5.91713C5.03741 5.68289 4.83676 5.50405 4.60201 5.51838C4.15415 5.54512 3.69716 5.57446 3.20483 5.60811C1.77933 5.70538 0.62387 6.80362 0.457493 8.21944C-0.152498 13.4057 -0.152498 18.6649 0.457493 23.8511C0.623926 25.2669 1.77933 26.3651 3.20472 26.4624C3.72492 26.4981 4.24603 26.5307 4.76754 26.5615C4.76765 26.562 4.76771 26.5625 4.76782 26.563L5.06245 27.8303C5.10805 28.0265 5.28281 28.159 5.47592 28.159C5.50776 28.159 5.54011 28.1555 5.57251 28.1479C5.80109 28.0948 5.94327 27.8664 5.89014 27.6379L5.65131 26.6106C8.59986 26.7685 11.5647 26.8488 14.5229 26.8488C16.26 26.8488 17.995 26.8215 19.7223 26.7668C19.9569 26.7594 20.141 26.5632 20.1335 26.3287C20.1261 26.0942 19.9287 25.9084 19.6954 25.9175Z" fill="black"/>
<path d="M28.5425 8.2194C28.3761 6.80359 27.2207 5.70534 25.7953 5.60808C22.8248 5.40454 19.8358 5.28246 16.8459 5.24003L20.0269 1.54383C20.18 1.36596 20.1599 1.09773 19.982 0.944663C19.8042 0.791599 19.5359 0.811709 19.3829 0.989529L15.7353 5.2278C14.9529 5.22191 14.1706 5.2214 13.3887 5.22655L9.74237 0.989529C9.58925 0.811709 9.32102 0.791542 9.1432 0.944663C8.96532 1.09773 8.94521 1.36601 9.09833 1.54383L12.277 5.23737C10.2798 5.264 8.28633 5.32637 6.30171 5.42522C6.06735 5.43689 5.88681 5.63635 5.89848 5.8707C5.91015 6.10506 6.11001 6.28554 6.34397 6.27387C12.7752 5.95346 19.2999 6.01465 25.7373 6.45582C26.7551 6.52527 27.5799 7.30867 27.6987 8.3186C28.3009 13.4389 28.3009 18.6315 27.6987 23.7518C27.5799 24.7617 26.7551 25.5451 25.7371 25.6146C24.2967 25.7136 22.8287 25.7948 21.3741 25.8558C21.1396 25.8656 20.9575 26.0637 20.9674 26.2981C20.9769 26.5265 21.1651 26.7052 21.3915 26.7052C21.3975 26.7052 21.4036 26.7051 21.4096 26.7049C22.0545 26.6778 22.7019 26.6461 23.3485 26.6114L23.1099 27.6378C23.0567 27.8664 23.199 28.0947 23.4275 28.1478C23.4599 28.1554 23.4923 28.1589 23.5241 28.1589C23.7172 28.1589 23.8919 28.0264 23.9376 27.8302L24.2321 26.5629C24.2323 26.5624 24.2323 26.5618 24.2324 26.5613C24.7554 26.5303 25.2773 26.4979 25.7951 26.4623C27.2206 26.365 28.3761 25.2668 28.5425 23.851C29.1526 18.6649 29.1526 13.4056 28.5425 8.2194Z" fill="black"/>
<path d="M2.72362 9.32431C2.13623 13.7771 2.13623 18.2925 2.72362 22.7453C2.84366 23.6552 3.59663 24.3615 4.514 24.4248C7.82708 24.6535 11.1636 24.7679 14.5 24.7679C17.8364 24.7679 21.1729 24.6535 24.486 24.4248C25.4034 24.3615 26.1564 23.6551 26.2764 22.7453C26.8637 18.2925 26.8637 13.7771 26.2764 9.32431C26.1564 8.41442 25.4034 7.70807 24.486 7.64479C17.8598 7.18741 11.1402 7.18741 4.51394 7.64479C3.59658 7.70813 2.8436 8.41448 2.72362 9.32431ZM14.5 8.15146C17.8169 8.15146 21.1338 8.26515 24.4275 8.49248C24.9433 8.52811 25.3666 8.92465 25.434 9.43545C26.0116 13.8144 26.0116 18.2552 25.434 22.6342C25.3666 23.145 24.9434 23.5415 24.4275 23.5771C17.84 24.0318 11.1599 24.0318 4.57252 23.5771C4.05667 23.5415 3.6334 23.145 3.56599 22.6342C2.98834 18.2552 2.98834 13.8144 3.56599 9.43545C3.63334 8.92465 4.05667 8.52811 4.57252 8.49248C7.86623 8.26515 11.1831 8.15146 14.5 8.15146Z" fill="black"/>
</g>
<defs>
<clipPath id="clip0_83_68">
<rect width="29" height="29" fill="white"/>
</clipPath>
</defs>
</svg>
