<svg width="29" height="30" viewBox="0 0 29 30" fill="none" xmlns="http://www.w3.org/2000/svg">
<path fill-rule="evenodd" clip-rule="evenodd" d="M24.7466 10.5307C25.3448 11.8997 25.677 13.4114 25.677 15.0003C25.677 21.1689 20.6685 26.1774 14.5 26.1774C8.33142 26.1774 3.32288 21.1689 3.32288 15.0003C3.32288 8.83178 8.33142 3.82324 14.5 3.82324C15.0002 3.82324 15.4062 3.41724 15.4062 2.91699C15.4062 2.41674 15.0002 2.01074 14.5 2.01074C7.33092 2.01074 1.51038 7.83128 1.51038 15.0003C1.51038 22.1694 7.33092 27.9899 14.5 27.9899C21.669 27.9899 27.4895 22.1694 27.4895 15.0003C27.4895 13.1528 27.1029 11.3959 26.4069 9.80328C26.2063 9.34533 25.671 9.13628 25.213 9.33687C24.7551 9.53745 24.546 10.0715 24.7466 10.5307Z" fill="black"/>
<path fill-rule="evenodd" clip-rule="evenodd" d="M20.5417 2.01074C18.2458 2.01074 16.3826 3.87399 16.3826 6.16983C16.3826 6.88758 16.7076 7.7612 17.2103 8.61428C18.2192 10.3313 19.9012 12.0157 19.9012 12.0157C20.2553 12.3698 20.828 12.3698 21.1821 12.0157C21.1821 12.0157 22.8641 10.3313 23.873 8.61428C24.3757 7.7612 24.7007 6.88758 24.7007 6.16983C24.7007 3.87399 22.8375 2.01074 20.5417 2.01074ZM20.5417 3.82324C21.837 3.82324 22.8882 4.87449 22.8882 6.16983C22.8882 6.80783 22.4134 7.59203 21.9034 8.33153C21.4479 8.99128 20.9344 9.60512 20.5417 10.0474C20.1489 9.60512 19.6354 8.99128 19.1799 8.33153C18.6699 7.59203 18.1951 6.80783 18.1951 6.16983C18.1951 4.87449 19.2463 3.82324 20.5417 3.82324Z" fill="black"/>
<path fill-rule="evenodd" clip-rule="evenodd" d="M1.93692 15.7684L5.88817 18.2382C6.60834 18.6877 7.44088 18.927 8.28913 18.927H9.20746C10.0013 18.927 10.7553 19.2738 11.2725 19.8767L12.5425 21.3593C13.137 22.0529 13.3436 22.9978 13.0935 23.8751C12.7696 25.0061 12.4204 26.2301 12.4204 26.2301C12.2827 26.7111 12.5618 27.2125 13.0427 27.3503C13.5236 27.488 14.0251 27.2089 14.1628 26.728C14.1628 26.728 14.512 25.5039 14.8359 24.3729C15.254 22.9108 14.9096 21.3352 13.9188 20.18C13.5043 19.6955 13.0475 19.1638 12.6476 18.6974C11.7873 17.692 10.5306 17.1145 9.20746 17.1145H8.28913C7.78042 17.1145 7.28138 16.9719 6.8488 16.7012L2.89634 14.2314C2.47221 13.9668 1.91276 14.0948 1.64813 14.5202C1.38351 14.9443 1.51159 15.5038 1.93692 15.7684Z" fill="black"/>
<path fill-rule="evenodd" clip-rule="evenodd" d="M6.43922 5.73805C6.43922 5.73805 7.66205 8.18372 8.36772 9.59505C8.79426 10.4493 9.56759 11.0777 10.4908 11.3218L12.615 11.8836C13.1503 12.025 13.5648 12.4479 13.6953 12.9856L14.6051 16.7158C14.8021 17.5253 15.2963 18.231 15.9899 18.6938L16.553 19.0684C17.3456 19.5976 18.328 19.7608 19.2488 19.5155C20.1707 19.2714 20.9416 18.6431 21.3682 17.79L22.063 16.3992C22.2611 16.0053 22.62 15.7165 23.0478 15.6101C23.0478 15.6089 26.4202 14.7667 26.4202 14.7667C26.9048 14.6447 27.2008 14.1529 27.0788 13.6671C26.9579 13.1826 26.4661 12.8866 25.9804 13.0086L22.6079 13.8508C21.6678 14.0864 20.8764 14.7208 20.4426 15.5884L19.7466 16.9792C19.5533 17.3671 19.2028 17.6522 18.7836 17.7634C18.3655 17.8746 17.9184 17.8008 17.5583 17.5604L16.9952 17.1858C16.6798 16.9756 16.4551 16.6541 16.3657 16.2868L15.457 12.5567C15.1682 11.3737 14.2559 10.4433 13.0778 10.1316L10.9536 9.56968C10.5343 9.45851 10.1826 9.17335 9.9893 8.78426C9.28243 7.37293 8.0608 4.92847 8.0608 4.92847C7.83726 4.48018 7.2923 4.29893 6.84522 4.52247C6.39693 4.74601 6.21568 5.29097 6.43922 5.73805Z" fill="black"/>
</svg>
