<svg width="29" height="30" viewBox="0 0 29 30" fill="none" xmlns="http://www.w3.org/2000/svg">
<g clip-path="url(#clip0_83_59)">
<path fill-rule="evenodd" clip-rule="evenodd" d="M24.7466 9.01996C25.3448 10.389 25.677 11.9006 25.677 13.4896C25.677 19.6581 20.6685 24.6667 14.5 24.6667C8.33142 24.6667 3.32288 19.6581 3.32288 13.4896C3.32288 7.32104 8.33142 2.3125 14.5 2.3125C15.0002 2.3125 15.4062 1.9065 15.4062 1.40625C15.4062 0.906 15.0002 0.5 14.5 0.5C7.33092 0.5 1.51038 6.32054 1.51038 13.4896C1.51038 20.6586 7.33092 26.4792 14.5 26.4792C21.669 26.4792 27.4895 20.6586 27.4895 13.4896C27.4895 11.642 27.1029 9.88513 26.4069 8.29254C26.2063 7.83458 25.671 7.62554 25.213 7.82613C24.7551 8.02671 24.546 8.56079 24.7466 9.01996Z" fill="black"/>
<path fill-rule="evenodd" clip-rule="evenodd" d="M20.5417 0.5C18.2458 0.5 16.3826 2.36325 16.3826 4.65908C16.3826 5.37683 16.7076 6.25046 17.2103 7.10354C18.2192 8.82058 19.9012 10.505 19.9012 10.505C20.2553 10.859 20.828 10.859 21.1821 10.505C21.1821 10.505 22.8641 8.82058 23.873 7.10354C24.3757 6.25046 24.7007 5.37683 24.7007 4.65908C24.7007 2.36325 22.8375 0.5 20.5417 0.5ZM20.5417 2.3125C21.837 2.3125 22.8882 3.36375 22.8882 4.65908C22.8882 5.29708 22.4134 6.08129 21.9034 6.82079C21.4479 7.48054 20.9344 8.09438 20.5417 8.53662C20.1489 8.09438 19.6354 7.48054 19.1799 6.82079C18.6699 6.08129 18.1951 5.29708 18.1951 4.65908C18.1951 3.36375 19.2463 2.3125 20.5417 2.3125Z" fill="black"/>
<path fill-rule="evenodd" clip-rule="evenodd" d="M1.93692 14.2576L5.88817 16.7275C6.60834 17.177 7.44088 17.4162 8.28913 17.4162H9.20746C10.0013 17.4162 10.7553 17.763 11.2725 18.366L12.5425 19.8486C13.137 20.5422 13.3436 21.4871 13.0935 22.3643C12.7696 23.4953 12.4204 24.7194 12.4204 24.7194C12.2827 25.2003 12.5618 25.7018 13.0427 25.8395C13.5236 25.9773 14.0251 25.6981 14.1628 25.2172C14.1628 25.2172 14.512 23.9932 14.8359 22.8622C15.254 21.4001 14.9096 19.8244 13.9188 18.6693C13.5043 18.1847 13.0475 17.6531 12.6476 17.1866C11.7873 16.1813 10.5306 15.6037 9.20746 15.6037H8.28913C7.78042 15.6037 7.28138 15.4611 6.8488 15.1905L2.89634 12.7206C2.47221 12.456 1.91276 12.5841 1.64813 13.0094C1.38351 13.4336 1.51159 13.993 1.93692 14.2576Z" fill="black"/>
<path fill-rule="evenodd" clip-rule="evenodd" d="M6.43922 4.22731C6.43922 4.22731 7.66205 6.67298 8.36772 8.08431C8.79426 8.9386 9.56759 9.56694 10.4908 9.81102L12.615 10.3729C13.1503 10.5143 13.5648 10.9372 13.6953 11.4749L14.6051 15.205C14.8021 16.0146 15.2963 16.7203 15.9899 17.1831L16.553 17.5576C17.3456 18.0869 18.328 18.25 19.2488 18.0047C20.1707 17.7606 20.9416 17.1323 21.3682 16.2792L22.063 14.8884C22.2611 14.4945 22.62 14.2057 23.0478 14.0994C23.0478 14.0982 26.4202 13.256 26.4202 13.256C26.9048 13.1339 27.2008 12.6421 27.0788 12.1564C26.9579 11.6719 26.4661 11.3758 25.9804 11.4979L22.6079 12.3401C21.6678 12.5757 20.8764 13.2101 20.4426 14.0776L19.7466 15.4684C19.5533 15.8563 19.2028 16.1415 18.7836 16.2526C18.3655 16.3638 17.9184 16.2901 17.5583 16.0496L16.9952 15.6751C16.6798 15.4648 16.4551 15.1434 16.3657 14.7761L15.457 11.0459C15.1682 9.86298 14.2559 8.93256 13.0778 8.62081L10.9536 8.05894C10.5343 7.94777 10.1826 7.6626 9.9893 7.27352C9.28243 5.86219 8.0608 3.41773 8.0608 3.41773C7.83726 2.96944 7.2923 2.78819 6.84522 3.01173C6.39693 3.23527 6.21568 3.78023 6.43922 4.22731Z" fill="black"/>
</g>
<defs>
<clipPath id="clip0_83_59">
<rect width="29" height="29" fill="white" transform="translate(0 0.5)"/>
</clipPath>
</defs>
</svg>
